<svg id="Layer_1" data-name="Layer 1" xmlns="http://www.w3.org/2000/svg" viewBox="0 0 601.03 233.1"><defs><style>.cls-1{fill:#357160;}</style></defs><title>huffingtonpost</title><path class="cls-1" d="M1188.15,413.49c0,8.71.17,10,5,10.37l2.65,0.25a1.63,1.63,0,0,1-.17,2.07c-4.72-.16-7.55-0.24-10.87-0.24s-6.22.08-11.53,0.24a1.44,1.44,0,0,1,0-2.07l3-.25c4.73-.41,5.15-1.66,5.15-10.37V376.4c0-2.57,0-2.65-2.49-2.65h-4.56c-3.57,0-8.13.16-10.21,2.07a15,15,0,0,0-3.73,5.72,1.6,1.6,0,0,1-2.16-.58,88,88,0,0,0,3.16-12.36,2.1,2.1,0,0,1,1.58,0c0.49,2.66,3.23,2.57,7.05,2.57h33.61c4.48,0,5.23-.17,6.47-2.32a1.53,1.53,0,0,1,1.5.25,50.13,50.13,0,0,0-1.25,12.61,1.56,1.56,0,0,1-2.15.16c-0.25-2.07-.83-5.14-2.08-6.05-1.91-1.41-5.06-2.07-9.62-2.07h-5.89c-2.49,0-2.41.08-2.41,2.82v36.92h0Zm53-14.35c-4,0-4.15.17-4.15,2.65v11.7c0,8.71.42,9.88,5.06,10.37l2.41,0.25a1.63,1.63,0,0,1-.17,2.07c-4.48-.17-7.3-0.25-10.54-0.25-3.57,0-6.39.17-9.62,0.25a1.61,1.61,0,0,1-.17-2.07l1.41-.25c4.65-.83,4.81-1.66,4.81-10.37V383.62c0-8.71-.58-10.12-4.89-10.45l-2.15-.16a1.63,1.63,0,0,1,.16-2.08c4.07,0.08,6.89.25,10.45,0.25,3.23,0,6.06-.09,9.63-0.25a1.63,1.63,0,0,1,.17,2.08l-1.58.16c-4.81.5-5,1.74-5,10.45v9.54c0,2.57.17,2.66,4.15,2.66h23.73c4,0,4.15-.08,4.15-2.66v-9.54c0-8.71-.17-10-5.06-10.45l-1.58-.16a1.64,1.64,0,0,1,.17-2.08q5,0.24,10,.25c3.23,0,6.06-.09,9.79-0.25a1.63,1.63,0,0,1,.17,2.08l-1.74.16c-4.81.5-5,1.74-5,10.45v29.87c0,8.71.17,9.79,5,10.37l2,0.25a1.63,1.63,0,0,1-.17,2.07q-5-.24-10-0.25c-3.4,0-6.39.08-10,.25a1.61,1.61,0,0,1-.17-2.07l1.58-.25c5.06-.83,5.06-1.66,5.06-10.37V401.8c0-2.49-.17-2.65-4.15-2.65h-23.74Zm62.44-15.52c0-8.63-.17-9.88-5.06-10.45l-1.33-.17a1.64,1.64,0,0,1,.17-2.07c3.57,0.16,6.39.25,9.79,0.25h15.6c5.31,0,10.21,0,11.2-.25,0.49,1.41,1,7.38,1.32,11a1.62,1.62,0,0,1-2.07.17c-1.24-3.9-2-6.81-6.31-7.89a40.19,40.19,0,0,0-8-.49h-6c-2.49,0-2.49.16-2.49,3.32v16.59c0,2.32.25,2.32,2.74,2.32h4.81a31.16,31.16,0,0,0,7.06-.49c1-.33,1.58-0.84,2-2.91l0.67-3.41a1.65,1.65,0,0,1,2.15.08c0,2-.33,5.23-0.33,8.37,0,3,.33,6.14.33,8a1.64,1.64,0,0,1-2.15.08l-0.75-3.23c-0.33-1.49-.91-2.74-2.57-3.16a27.55,27.55,0,0,0-6.39-.42h-4.81c-2.49,0-2.74.08-2.74,2.24v11.7c0,4.4.25,7.22,1.58,8.63,1,1,2.73,1.91,10,1.91,6.39,0,8.8-.33,10.62-1.24,1.49-.84,3.73-3.73,5.89-8.05a1.53,1.53,0,0,1,2.07.58,72,72,0,0,1-3.74,11.53c-7.46-.16-14.85-0.25-22.24-0.25h-7.46c-3.57,0-6.39.08-11.29,0.25a1.6,1.6,0,0,1-.17-2.07l2.74-.25c4.72-.41,5.14-1.66,5.14-10.37V383.62h0ZM967.78,486.28c-4,0-4.15.16-4.15,2.66v11.7c0,8.71.41,9.87,5.06,10.37l2.41,0.24a1.64,1.64,0,0,1-.17,2.08c-4.48-.17-7.3-0.25-10.54-0.25-3.57,0-6.39.17-9.62,0.25a1.61,1.61,0,0,1-.17-2.08L952,511c4.65-.84,4.81-1.66,4.81-10.37V470.76c0-8.71-.58-10.12-4.89-10.45l-2.15-.16a1.63,1.63,0,0,1,.16-2.07c4.07,0.08,6.89.24,10.45,0.24,3.24,0,6.06-.08,9.63-0.24a1.63,1.63,0,0,1,.17,2.07l-1.58.16c-4.81.5-5,1.75-5,10.45v9.54c0,2.57.16,2.65,4.15,2.65h23.73c4,0,4.15-.08,4.15-2.65v-9.54c0-8.71-.17-10-5.06-10.45l-1.58-.16a1.63,1.63,0,0,1,.17-2.07c3.82,0.16,6.64.24,10,.24,3.24,0,6.06-.08,9.79-0.24a1.63,1.63,0,0,1,.17,2.07l-1.75.16c-4.81.5-5,1.75-5,10.45v29.87c0,8.71.17,9.79,5,10.37l2,0.24a1.63,1.63,0,0,1-.16,2.08q-5-.24-10-0.25c-3.4,0-6.39.08-10,.25a1.61,1.61,0,0,1-.17-2.08l1.58-.24c5.06-.84,5.06-1.66,5.06-10.37v-11.7c0-2.49-.17-2.65-4.15-2.65H967.78Zm101.81-7.14c0-5.14-.17-14.69-1.58-17.18-0.58-1-2.08-1.58-4.15-1.74l-2.08-.17a1.49,1.49,0,0,1,.16-2q4.73,0.25,9.46.25c3.49,0,5.73-.08,8.71-0.25a1.43,1.43,0,0,1,.16,2l-2,.17c-2.07.16-3.65,0.91-4.15,2C1073,465,1073,474.49,1073,479.14v9.38c0,7.22-1.16,14.85-5.81,19.83-3.57,3.9-9.7,6.06-15.85,6.06-5.73,0-11.45-1.08-15.52-4.57-4.4-3.65-6.47-9.71-6.47-19.58V470.68c0-8.63-.17-10-5-10.45l-2.08-.17a1.51,1.51,0,0,1,.17-2c4.15,0.17,7,.25,10.28.25s6.15-.08,10.21-0.25a1.52,1.52,0,0,1,.17,2l-2,.17c-4.81.42-5,1.83-5,10.45V488.6c0,13.36,4.15,22.15,16.85,22.15,12,0,16.59-9.46,16.59-22.07v-9.54h0Zm36.2,2.57c0,2.24.25,2.24,2.74,2.24h5.64a31.57,31.57,0,0,0,7-.49c0.91-.33,1.58-0.75,2.07-2.91l0.75-3.32a1.74,1.74,0,0,1,2.15,0c0,2-.33,5.31-0.33,8.38s0.33,6.14.33,8.05a1.74,1.74,0,0,1-2.15,0l-0.84-3.24a4,4,0,0,0-2.65-3.15,28.1,28.1,0,0,0-6.39-.42h-5.64c-2.49,0-2.74.08-2.74,2.24v11.53c0,8.72.17,10,5.06,10.37l2.82,0.25a1.63,1.63,0,0,1-.16,2.07c-4.9-.17-7.72-0.25-11-0.25-3.65,0-6.47.08-10.37,0.25a1.61,1.61,0,0,1-.17-2.07L1094,511c4.81-.59,5-1.66,5-10.37V470.76c0-8.71-.17-9.88-5-10.45l-1.33-.16a1.64,1.64,0,0,1,.16-2.07c3.49,0.16,6.31.24,9.63,0.24h15.27c5.31,0,10.12,0,11.21-.24,0,3.81.08,7.8,0.25,11a1.5,1.5,0,0,1-2,.24c-0.67-3.73-1.66-6.8-5.81-7.88-1.83-.5-4.57-0.5-8.05-0.5h-5.06c-2.49,0-2.49.17-2.49,3.32v17.51h0Zm49.86,0c0,2.24.25,2.24,2.74,2.24H1164a31.65,31.65,0,0,0,7.05-.49c0.91-.33,1.58-0.75,2.08-2.91l0.75-3.32a1.74,1.74,0,0,1,2.16,0c0,2-.33,5.31-0.33,8.38s0.33,6.14.33,8.05a1.75,1.75,0,0,1-2.16,0l-0.83-3.24a4,4,0,0,0-2.66-3.15,28.08,28.08,0,0,0-6.38-.42h-5.65c-2.49,0-2.74.08-2.74,2.24v11.53c0,8.72.17,10,5.06,10.37l2.82,0.25a1.63,1.63,0,0,1-.16,2.07c-4.9-.17-7.72-0.25-11-0.25-3.65,0-6.47.08-10.37,0.25a1.61,1.61,0,0,1-.17-2.07l2.08-.25c4.81-.59,5-1.66,5-10.37V470.76c0-8.71-.17-9.88-5-10.45l-1.33-.16a1.63,1.63,0,0,1,.16-2.07c3.49,0.16,6.31.24,9.63,0.24h15.27c5.31,0,10.12,0,11.2-.24,0,3.81.08,7.8,0.25,11a1.5,1.5,0,0,1-2,.24c-0.67-3.73-1.66-6.8-5.81-7.88-1.83-.5-4.57-0.5-8-0.5h-5.06c-2.49,0-2.49.17-2.49,3.32v17.51h0Zm43.48-10.79c0-8.79-.17-10.2-5.06-10.62l-2.07-.16a1.63,1.63,0,0,1,.16-2.07c4.15,0.17,7,.25,10.45.25,3.32,0,6.14-.08,10.29-0.25a1.63,1.63,0,0,1,.16,2.07l-2.07.16c-4.89.41-5.06,1.83-5.06,10.62v29.54c0,8.79.17,10,5.06,10.54l2.07,0.24a1.62,1.62,0,0,1-.16,2.07c-4.15-.17-7-0.24-10.29-0.24-3.48,0-6.3.08-10.45,0.24a1.62,1.62,0,0,1-.16-2.07l2.07-.24c4.89-.59,5.06-1.75,5.06-10.54V470.92h0Zm79.5,28.05c0,2.49,0,12.36.25,14.52a1.5,1.5,0,0,1-1.58.91c-1-1.41-3.41-4.32-10.62-12.53L1247.44,480c-2.24-2.57-7.88-9.38-9.63-11.21h-0.16a20.93,20.93,0,0,0-.42,5.4v18.09c0,3.9.08,14.69,1.49,17.17,0.5,0.92,2.16,1.41,4.24,1.58l2.57,0.25a1.52,1.52,0,0,1-.17,2.07q-4.85-.24-9.71-0.25c-3.49,0-5.73.08-8.63,0.25a1.54,1.54,0,0,1-.16-2.07l2.24-.25c1.91-.25,3.23-0.74,3.65-1.66,1.16-3,1.07-13.1,1.07-17.09v-24c0-2.32-.08-4.06-1.82-6a9,9,0,0,0-5.14-2l-1.41-.17a1.44,1.44,0,0,1,.16-2.07c3.49,0.25,7.88.25,9.38,0.25a27,27,0,0,0,3.81-.25c1.66,4.23,11.45,15.18,14.19,18.25l8,9c5.73,6.39,9.8,11,13.7,15h0.16c0.33-.41.33-1.75,0.33-3.49V479.14c0-3.9-.08-14.69-1.66-17.17-0.49-.75-1.82-1.24-5.14-1.66l-1.41-.17a1.38,1.38,0,0,1,.17-2.07c3.82,0.16,6.64.25,9.79,0.25,3.57,0,5.73-.08,8.55-0.25a1.46,1.46,0,0,1,.17,2.07l-1.16.17c-2.66.42-4.32,1.08-4.65,1.75-1.41,3-1.24,13.27-1.24,17.09V499h0Zm67.31,5.64c0,3.32.5,5.31,2,5.89a0.69,0.69,0,0,1-.06,1l0,0a18.7,18.7,0,0,0-4.07.74,64.46,64.46,0,0,1-14.85,2.16c-9.87,0-18.92-2.74-25.31-9.21a26.13,26.13,0,0,1-7.63-18.84,28.48,28.48,0,0,1,7.46-19.66c5.56-5.81,13.78-9.71,26.31-9.71a49.57,49.57,0,0,1,10.54,1.24c1.57,0.33,4.14.91,5.14,0.75a93.23,93.23,0,0,0,1.25,12c-0.25.66-1.75,0.75-2.24,0.25-2.32-9-8.55-11.79-17-11.79-16.1,0-23.15,11.46-23.15,23.9,0,15.93,8.21,28.46,24.9,28.46,5.14,0,8.21-1.08,9.13-2.49,0.41-.58.83-2.08,0.83-4.73v-3.32c0-7-.25-7.46-5.4-8.05l-3.65-.41a1.39,1.39,0,0,1,0-2.07c2.41,0.17,7,.24,11.87.24,3.24,0,6.06-.08,8.8-0.24a1.44,1.44,0,0,1,.08,2.07l-1.33.16c-3.49.42-3.57,2.74-3.57,7v4.65h0Zm43.88-4c0,8.71.17,10,5,10.37l2.65,0.25a1.64,1.64,0,0,1-.17,2.07c-4.73-.16-7.55-0.25-10.87-0.25s-6.22.08-11.53,0.25a1.45,1.45,0,0,1,0-2.07l3-.25c4.72-.41,5.14-1.66,5.14-10.37V463.54c0-2.57,0-2.65-2.49-2.65H1376c-3.57,0-8.13.16-10.21,2.07a15.19,15.19,0,0,0-3.73,5.72,1.6,1.6,0,0,1-2.16-.58,86.12,86.12,0,0,0,3.16-12.36,2.09,2.09,0,0,1,1.58,0c0.5,2.66,3.24,2.57,7.06,2.57h33.6c4.48,0,5.23-.17,6.47-2.32a1.53,1.53,0,0,1,1.49.25,50.25,50.25,0,0,0-1.25,12.61,1.54,1.54,0,0,1-2.15.16c-0.25-2.07-.83-5.14-2.07-6.06-1.91-1.41-5.06-2.07-9.62-2.07h-5.89c-2.49,0-2.41.08-2.41,2.82v36.92h0Zm32-14.35c0-16.59,12.44-29.29,29.54-29.29,19.17,0,28.79,13.85,28.79,28.47,0,16.76-12.77,29-28.79,29-18.43,0-29.54-13.19-29.54-28.13m50,1.74c0-13.69-6.06-28.46-21.91-28.46-8.63,0-19.83,5.89-19.83,24.06,0,12.28,6,28.21,22.32,28.21,9.95,0,19.42-7.46,19.42-23.81m71.19,11c0,2.49,0,12.36.24,14.52a1.5,1.5,0,0,1-1.58.91c-1-1.41-3.4-4.32-10.62-12.53L1511.9,480c-2.24-2.57-7.88-9.38-9.63-11.21h-0.16a21,21,0,0,0-.42,5.4v18.09c0,3.9.08,14.69,1.49,17.17,0.5,0.92,2.16,1.41,4.24,1.58l2.57,0.25a1.52,1.52,0,0,1-.17,2.07q-4.85-.23-9.7-0.25c-3.49,0-5.73.08-8.63,0.25a1.54,1.54,0,0,1-.16-2.07l2.24-.25c1.91-.25,3.23-0.74,3.65-1.66,1.16-3,1.08-13.1,1.08-17.09v-24c0-2.32-.08-4.06-1.83-6a9,9,0,0,0-5.14-2l-1.41-.17a1.45,1.45,0,0,1,.16-2.07c3.49,0.25,7.88.25,9.38,0.25a27,27,0,0,0,3.81-.25c1.66,4.23,11.45,15.18,14.19,18.25l8.05,9c5.72,6.39,9.79,11,13.69,15h0.16c0.33-.41.33-1.75,0.33-3.49V479.14c0-3.9-.08-14.69-1.66-17.17-0.5-.75-1.82-1.24-5.14-1.66l-1.41-.17a1.38,1.38,0,0,1,.17-2.07c3.81,0.16,6.64.25,9.79,0.25,3.57,0,5.72-.08,8.54-0.25a1.46,1.46,0,0,1,.17,2.07l-1.17.17c-2.66.42-4.32,1.08-4.65,1.75-1.41,3-1.24,13.27-1.24,17.09V499h0Zm-388,88.79c0,8.71.17,9.79,5.48,10.37l2.25,0.25a1.62,1.62,0,0,1-.17,2.07c-4.73-.16-7.46-0.25-10.79-0.25-3.48,0-6.47.08-10.12,0.25a1.61,1.61,0,0,1-.17-2.07l1.75-.25c4.81-.66,5-1.66,5-10.37V557.15c0-7-.17-8.46-3.9-8.88l-3-.33a1.38,1.38,0,0,1,.16-2.07,130.18,130.18,0,0,1,16.43-.66c6.89,0,12,.91,15.93,3.31a14.35,14.35,0,0,1,6.64,12.45,14.07,14.07,0,0,1-8.3,13.19,28,28,0,0,1-11.45,2.49,1.05,1.05,0,0,1-.08-1.66c9-1.66,12.2-6.72,12.2-13.94,0-8-4.73-13.27-13.36-13.27-4.39,0-4.48.33-4.48,3v37h0Zm37.37-14.36c0-16.59,12.45-29.29,29.54-29.29,19.17,0,28.79,13.86,28.79,28.46,0,16.75-12.78,29-28.79,29-18.42,0-29.54-13.18-29.54-28.12m50,1.75c0-13.7-6.06-28.47-21.91-28.47-8.62,0-19.83,5.9-19.83,24.06,0,12.29,6,28.21,22.32,28.21,10,0,19.42-7.46,19.42-23.81m35.67,26.38a25.89,25.89,0,0,1-13-3.07c-1-1.82-2.07-7.71-2.24-11.61,0.41-.58,1.66-0.75,2-0.24,1.24,4.23,4.65,12.36,14.27,12.36,7,0,10.37-4.56,10.37-9.54,0-3.65-.75-7.72-6.8-11.62l-7.88-5.14c-4.15-2.74-9-7.47-9-14.27,0-7.89,6.14-14.27,16.93-14.27a31.7,31.7,0,0,1,7.71,1.08,11.3,11.3,0,0,0,2.9.49,36.09,36.09,0,0,1,1.5,10.12,1.65,1.65,0,0,1-2.08.25c-1.08-4-3.32-9.38-11.28-9.38-8.13,0-9.88,5.4-9.88,9.21,0,4.81,4,8.3,7.06,10.21l6.64,4.15c5.23,3.23,10.37,8.05,10.37,15.93,0,9.14-6.89,15.36-17.67,15.36m59-13.77c0,8.71.17,10,5,10.37l2.65,0.25a1.63,1.63,0,0,1-.16,2.07c-4.73-.16-7.55-0.25-10.87-0.25s-6.22.08-11.53,0.25a1.45,1.45,0,0,1,0-2.07l3-.25c4.73-.41,5.15-1.66,5.15-10.37V550.68c0-2.57,0-2.66-2.49-2.66h-4.56c-3.57,0-8.13.16-10.21,2.08a15.17,15.17,0,0,0-3.73,5.72,1.61,1.61,0,0,1-2.16-.58,87.33,87.33,0,0,0,3.16-12.36,2.07,2.07,0,0,1,1.58,0c0.49,2.66,3.23,2.57,7,2.57h33.61c4.48,0,5.23-.17,6.47-2.32a1.53,1.53,0,0,1,1.49.25,50.3,50.3,0,0,0-1.24,12.62,1.56,1.56,0,0,1-2.16.16c-0.24-2.07-.83-5.14-2.07-6.05-1.91-1.41-5.06-2.08-9.63-2.08h-5.89c-2.49,0-2.41.09-2.41,2.82v36.92h0Z" transform="translate(-949.48 -368.45)"/></svg>