<svg id="Layer_1" data-name="Layer 1" xmlns="http://www.w3.org/2000/svg" viewBox="0 0 42.27 36"><defs><style>.cls-1{fill:#fff;}</style></defs><title>linkedin</title><path class="cls-1" d="M40.27,29.05a0.64,0.64,0,0,0,.64-0.68A0.71,0.71,0,0,0,40,27.67h-1v2.51h0.36V29.08h0.45l0.69,1.08H41l-0.74-1.12h0Zm-0.42-.25H39.44V28H40c0.28,0,.59,0,0.59.4S40.24,28.8,39.86,28.8Z"/><path class="cls-1" d="M39.9,26.55a2.37,2.37,0,1,0,2.37,2.37A2.35,2.35,0,0,0,39.9,26.55Zm0,4.43a2.06,2.06,0,1,1,2-2.06A2,2,0,0,1,39.9,31Z"/><path class="cls-1" d="M33.34,0H2.66A2.63,2.63,0,0,0,0,2.6V33.4A2.63,2.63,0,0,0,2.66,36H33.34A2.63,2.63,0,0,0,36,33.4V2.6A2.63,2.63,0,0,0,33.34,0ZM10.68,30.68H5.33V13.5h5.34V30.68ZM8,11.15a3.1,3.1,0,1,1,3.09-3.1A3.1,3.1,0,0,1,8,11.15ZM30.68,30.68H25.34V22.32c0-2,0-4.56-2.77-4.56s-3.2,2.17-3.2,4.41v8.5H14V13.5h5.12v2.35h0.07a5.61,5.61,0,0,1,5.05-2.77c5.41,0,6.41,3.56,6.41,8.18v9.42Z"/></svg>