<svg id="Layer_1" data-name="Layer 1" xmlns="http://www.w3.org/2000/svg" viewBox="0 0 26.01 25.67"><defs><style>.cls-1{fill:#fff;}.cls-1,.cls-2,.cls-3,.cls-4,.cls-5,.cls-6,.cls-7,.cls-8{fill-rule:evenodd;}.cls-2{fill:#f2c318;}.cls-3{fill:#e97224;}.cls-4{fill:#c01f46;}.cls-5{fill:#06ac4b;}.cls-6{fill:#70569e;}.cls-7{fill:#038acb;}.cls-8{fill:#231f20;}</style></defs><title>nbc</title><polygon class="cls-1" points="23.9 6.39 23.89 6.34 23.88 6.28 23.87 6.22 23.87 6.17 23.86 6.11 23.84 6.05 23.83 6 23.82 5.93 23.8 5.88 23.79 5.82 23.77 5.76 23.76 5.71 23.74 5.65 23.72 5.6 23.7 5.54 23.68 5.49 23.65 5.43 23.63 5.38 23.61 5.33 23.57 5.26 23.55 5.21 23.52 5.16 23.49 5.11 23.46 5.05 23.43 5 23.4 4.95 23.37 4.9 23.34 4.85 23.3 4.79 23.27 4.75 23.26 4.74 23.25 4.71 23.24 4.7 23.22 4.67 23.21 4.66 23.19 4.64 23.18 4.62 23.16 4.6 23.15 4.58 23.13 4.55 23.11 4.53 23.09 4.51 23.08 4.49 23.06 4.47 23.04 4.45 23.02 4.42 22.99 4.39 22.95 4.36 22.93 4.33 22.89 4.3 22.87 4.27 22.84 4.24 22.81 4.21 22.78 4.18 22.75 4.16 22.72 4.13 22.69 4.11 22.66 4.08 22.63 4.05 22.6 4.02 22.57 4 22.53 3.96 22.49 3.93 22.45 3.91 22.41 3.88 22.37 3.85 22.32 3.82 22.29 3.8 22.24 3.77 22.2 3.75 22.15 3.72 22.11 3.7 22.07 3.68 22.02 3.65 21.98 3.63 21.94 3.61 21.89 3.59 21.85 3.57 21.8 3.55 21.76 3.53 21.71 3.51 21.66 3.5 21.61 3.48 21.56 3.46 21.51 3.44 21.46 3.42 21.42 3.41 21.37 3.4 21.32 3.38 21.27 3.37 21.22 3.36 21.17 3.35 21.12 3.34 21.02 3.32 20.94 3.31 20.85 3.3 20.77 3.29 20.68 3.28 20.6 3.27 20.52 3.27 20.43 3.27 20.34 3.27 20.26 3.27 20.17 3.27 19.32 3.33 19.11 2.57 19.08 2.49 19.06 2.42 19.05 2.38 19.03 2.33 19.02 2.29 19.01 2.26 19 2.23 18.99 2.21 18.98 2.17 18.95 2.12 18.92 2.04 18.89 1.97 18.85 1.89 18.81 1.82 18.77 1.75 18.73 1.68 18.69 1.61 18.64 1.53 18.6 1.46 18.55 1.39 18.49 1.33 18.44 1.26 18.39 1.2 18.33 1.14 18.28 1.08 18.22 1.02 18.16 0.95 18.1 0.9 18.04 0.85 17.97 0.79 17.91 0.74 17.83 0.69 17.77 0.65 17.7 0.6 17.63 0.55 17.56 0.51 17.49 0.47 17.41 0.43 17.34 0.39 17.25 0.36 17.18 0.32 17.13 0.29 17.1 0.28 17.07 0.26 17.03 0.25 17 0.24 16.96 0.23 16.93 0.21 16.89 0.2 16.86 0.19 16.83 0.18 16.79 0.17 16.76 0.16 16.72 0.15 16.69 0.14 16.64 0.13 16.61 0.12 16.56 0.1 16.51 0.09 16.46 0.08 16.4 0.07 16.35 0.06 16.29 0.05 16.24 0.04 16.19 0.03 16.13 0.02 16.08 0.02 16.02 0.01 15.96 0.01 15.91 0 15.85 0 15.8 0 15.74 0 15.69 0 15.63 0 15.58 0 15.52 0.01 15.47 0.01 15.41 0.02 15.35 0.02 15.3 0.03 15.24 0.04 15.19 0.05 15.14 0.06 15.08 0.07 15.03 0.08 14.98 0.09 14.92 0.1 14.88 0.12 14.87 0.12 14.85 0.12 14.83 0.13 14.81 0.13 14.79 0.14 14.77 0.15 14.76 0.15 14.73 0.16 14.71 0.16 14.69 0.17 14.67 0.17 14.65 0.18 14.63 0.19 14.61 0.19 14.57 0.21 14.47 0.25 14.39 0.28 14.31 0.32 14.24 0.36 14.15 0.4 14.08 0.44 14 0.48 13.93 0.52 13.86 0.57 13.79 0.61 13.72 0.66 13.65 0.71 13.58 0.76 13 1.22 12.42 0.76 12.35 0.71 12.29 0.66 12.21 0.61 12.14 0.57 12.07 0.52 12 0.48 11.92 0.44 11.85 0.4 11.77 0.36 11.7 0.32 11.62 0.28 11.53 0.25 11.42 0.2 11.37 0.19 11.36 0.18 11.35 0.18 11.34 0.18 11.32 0.17 11.31 0.17 11.29 0.16 11.27 0.16 11.26 0.15 11.24 0.15 11.22 0.14 11.2 0.14 11.18 0.13 11.16 0.12 11.14 0.12 11.13 0.12 11.08 0.1 11.03 0.09 10.97 0.08 10.92 0.07 10.86 0.06 10.81 0.05 10.75 0.04 10.7 0.03 10.65 0.02 10.59 0.02 10.54 0.01 10.48 0.01 10.43 0 10.38 0 10.31 0 10.26 0 10.2 0 10.15 0 10.09 0 10.04 0.01 9.98 0.01 9.93 0.02 9.88 0.02 9.82 0.03 9.77 0.04 9.71 0.05 9.65 0.06 9.6 0.07 9.54 0.08 9.49 0.09 9.44 0.1 9.38 0.12 9.35 0.13 9.32 0.14 9.28 0.15 9.25 0.16 9.22 0.17 9.18 0.18 9.15 0.19 9.12 0.2 9.07 0.21 9.04 0.23 9 0.24 8.97 0.25 8.93 0.27 8.9 0.28 8.86 0.3 8.82 0.32 8.74 0.36 8.67 0.4 8.59 0.44 8.52 0.48 8.44 0.52 8.37 0.56 8.3 0.61 8.23 0.65 8.16 0.7 8.1 0.75 8.03 0.8 7.97 0.85 7.91 0.92 7.84 0.96 7.78 1.03 7.72 1.09 7.66 1.15 7.61 1.21 7.56 1.27 7.51 1.33 7.46 1.4 7.41 1.46 7.36 1.53 7.32 1.61 7.28 1.68 7.22 1.75 7.2 1.82 7.15 1.89 7.11 1.97 7.08 2.04 7.05 2.12 7.02 2.17 7.01 2.21 7 2.23 6.99 2.26 6.98 2.29 6.97 2.33 6.95 2.38 6.94 2.42 6.92 2.49 6.89 2.57 6.69 3.33 5.83 3.28 5.75 3.27 5.66 3.27 5.58 3.27 5.5 3.27 5.41 3.28 5.33 3.28 5.24 3.29 5.15 3.3 5.07 3.31 4.99 3.32 4.89 3.34 4.83 3.35 4.78 3.36 4.72 3.37 4.67 3.39 4.63 3.4 4.58 3.41 4.53 3.44 4.48 3.44 4.44 3.46 4.39 3.48 4.35 3.5 4.3 3.52 4.25 3.53 4.21 3.55 4.16 3.57 4.12 3.59 4.08 3.61 4.02 3.63 3.98 3.66 3.93 3.68 3.89 3.7 3.85 3.73 3.81 3.75 3.77 3.78 3.72 3.8 3.68 3.83 3.64 3.85 3.6 3.88 3.56 3.91 3.52 3.94 3.48 3.97 3.44 4 3.4 4.02 3.38 4.05 3.35 4.08 3.32 4.11 3.29 4.13 3.26 4.16 3.23 4.19 3.2 4.22 3.17 4.24 3.14 4.27 3.11 4.3 3.08 4.34 3.05 4.37 3.02 4.4 2.99 4.44 2.98 4.46 2.97 4.46 2.95 4.49 2.93 4.51 2.91 4.53 2.89 4.55 2.88 4.58 2.85 4.6 2.83 4.62 2.83 4.64 2.81 4.66 2.79 4.67 2.78 4.7 2.76 4.71 2.75 4.74 2.74 4.76 2.72 4.78 2.7 4.81 2.68 4.84 2.66 4.87 2.65 4.89 2.63 4.92 2.61 4.95 2.59 4.97 2.58 5 2.56 5.03 2.55 5.06 2.53 5.08 2.51 5.11 2.5 5.14 2.48 5.17 2.47 5.2 2.45 5.23 2.44 5.25 2.43 5.28 2.41 5.32 2.4 5.34 2.38 5.38 2.37 5.41 2.36 5.44 2.35 5.47 2.33 5.5 2.32 5.53 2.31 5.56 2.3 5.59 2.29 5.62 2.28 5.65 2.27 5.68 2.26 5.72 2.24 5.76 2.23 5.81 2.21 5.86 2.19 5.91 2.19 5.96 2.17 6.02 2.17 6.07 2.15 6.12 2.14 6.17 2.13 6.22 2.12 6.27 2.12 6.32 2.11 6.37 2.11 6.42 2.1 6.47 2.1 6.52 2.1 6.58 2.1 6.63 2.1 6.68 2.1 6.74 2.1 6.79 2.1 6.84 2.1 6.89 2.11 6.94 2.11 6.99 2.11 7.04 2.12 7.09 2.13 7.14 2.13 7.2 2.14 7.25 2.15 7.3 2.17 7.36 2.17 7.41 2.19 7.45 2.19 7.49 2.21 7.53 2.21 7.57 2.23 7.61 2.24 7.66 2.25 7.7 2.26 7.74 2.27 7.78 2.28 7.83 2.53 8.61 1.82 8.99 1.77 9.02 1.72 9.05 1.67 9.09 1.62 9.12 1.56 9.15 1.53 9.18 1.49 9.2 1.45 9.23 1.42 9.26 1.38 9.28 1.34 9.31 1.3 9.34 1.27 9.37 1.23 9.4 1.19 9.43 1.16 9.46 1.12 9.5 1.09 9.53 1.05 9.56 1.02 9.59 0.96 9.64 0.9 9.7 0.85 9.77 0.79 9.83 0.74 9.9 0.69 9.96 0.64 10.03 0.59 10.1 0.55 10.16 0.5 10.23 0.46 10.3 0.42 10.38 0.38 10.46 0.34 10.53 0.3 10.61 0.27 10.68 0.24 10.76 0.21 10.83 0.18 10.91 0.16 10.99 0.13 11.08 0.11 11.16 0.09 11.24 0.08 11.32 0.06 11.4 0.05 11.48 0.03 11.56 0.02 11.64 0.02 11.73 0.01 11.82 0.01 11.9 0 11.98 0 12.07 0 12.15 0.01 12.23 0.01 12.32 0.02 12.41 0.02 12.49 0.03 12.57 0.05 12.65 0.06 12.73 0.08 12.81 0.09 12.89 0.11 12.98 0.13 13.06 0.16 13.14 0.18 13.22 0.21 13.29 0.24 13.37 0.27 13.44 0.3 13.53 0.34 13.6 0.38 13.68 0.42 13.75 0.46 13.82 0.5 13.89 0.55 13.96 0.59 14.03 0.64 14.1 0.69 14.16 0.74 14.24 0.79 14.3 0.85 14.36 0.9 14.43 0.98 14.5 1.02 14.54 1.05 14.56 1.07 14.59 1.1 14.61 1.13 14.63 1.15 14.66 1.18 14.68 1.21 14.7 1.23 14.72 1.26 14.74 1.29 14.78 1.31 14.8 1.34 14.82 1.37 14.84 1.4 14.86 1.42 14.88 1.45 14.9 1.48 14.92 1.51 14.94 1.54 14.96 1.56 14.97 1.59 14.99 1.63 15.01 1.66 15.03 1.69 15.05 1.72 15.06 1.75 15.08 1.78 15.1 1.81 15.11 1.84 15.13 1.87 15.14 1.89 15.16 1.92 15.17 1.97 15.2 2.01 15.22 2.05 15.24 2.1 15.26 2.14 15.28 2.19 15.3 2.24 15.32 2.29 15.33 2.34 15.35 2.38 15.38 2.43 15.38 2.48 15.39 2.52 15.41 2.57 15.43 2.62 15.44 2.67 15.46 2.71 15.47 2.76 15.48 2.81 15.49 2.87 15.49 2.92 15.5 2.96 15.51 3.01 15.52 3.06 15.52 3.11 15.53 3.16 15.53 3.21 15.53 3.26 15.54 3.31 15.54 3.35 15.54 3.4 15.54 22.6 15.54 22.66 15.54 22.73 15.54 22.79 15.53 22.86 15.53 22.93 15.52 22.99 15.52 23.06 15.51 23.12 15.5 23.18 15.49 23.25 15.47 23.31 15.46 23.37 15.45 23.43 15.43 23.49 15.4 23.57 15.38 23.63 15.38 23.69 15.34 23.75 15.32 23.81 15.3 23.87 15.28 23.92 15.25 23.98 15.22 24.04 15.2 24.1 15.17 24.15 15.14 24.21 15.11 24.28 15.07 24.33 15.04 24.39 15.01 24.44 14.97 24.5 14.94 24.56 14.89 24.6 14.86 24.63 14.84 24.65 14.82 24.68 14.8 24.71 14.78 24.73 14.76 24.76 14.73 24.8 14.7 24.82 14.68 24.84 14.66 24.88 14.64 24.9 14.61 24.93 14.59 24.96 14.56 24.98 14.54 25.01 14.51 25.11 14.41 25.15 14.37 25.18 14.33 25.22 14.29 25.25 14.25 25.28 14.21 25.31 14.16 25.35 14.13 25.38 14.08 25.4 14.04 25.43 14 25.46 13.96 25.5 13.91 25.53 13.87 25.55 13.83 25.58 13.78 25.6 13.74 25.62 13.7 25.65 13.65 25.67 13.61 25.69 13.56 25.71 13.52 25.73 13.46 25.75 13.42 25.77 13.37 25.79 13.33 25.81 13.28 25.82 13.24 25.84 13.19 25.85 13.14 25.87 13.1 25.88 13.05 25.9 12.99 25.91 12.95 25.92 12.93 25.92 12.89 25.93 12.87 25.93 12.83 25.94 12.8 25.95 12.77 25.95 12.75 25.96 12.72 25.96 12.69 25.97 12.66 25.97 12.62 25.98 12.59 25.98 12.56 25.99 12.53 25.99 12.49 25.99 12.45 26 12.43 26 12.4 26 12.38 26 12.35 26 12.33 26 12.3 26.01 12.28 26.01 12.24 26.01 12.22 26.01 12.19 26.01 12.17 26.01 12.14 26.01 12.12 26.01 12.09 26.01 12.06 26.01 12 26.01 11.93 26 11.86 26 11.8 26 11.73 25.99 11.66 25.98 11.58 25.97 11.52 25.96 11.45 25.95 11.38 25.94 11.32 25.92 11.25 25.91 11.19 25.89 11.12 25.87 11.06 25.85 10.98 25.83 10.92 25.81 10.86 25.79 10.79 25.76 10.73 25.74 10.67 25.71 10.61 25.68 10.55 25.65 10.49 25.62 10.43 25.59 10.37 25.55 10.3 25.52 10.24 25.48 10.19 25.43 10.13 25.39 10.08 25.36 10.03 25.35 10.01 25.32 9.98 25.3 9.95 25.28 9.93 25.26 9.9 25.24 9.87 25.22 9.85 25.19 9.82 25.17 9.8 25.15 9.77 25.13 9.74 25.11 9.72 25.09 9.69 25.07 9.67 25.04 9.65 25.03 9.63 25 9.6 24.96 9.57 24.92 9.53 24.89 9.5 24.84 9.47 24.8 9.43 24.77 9.4 24.73 9.37 24.69 9.34 24.66 9.31 24.62 9.29 24.58 9.26 24.55 9.23 24.51 9.21 24.48 9.18 24.44 9.16 24.4 9.13 24.35 9.1 24.31 9.06 24.26 9.03 24.2 9.01 24.15 8.98 23.47 8.61 23.73 7.83 23.74 7.79 23.75 7.76 23.75 7.73 23.76 7.71 23.77 7.68 23.77 7.65 23.78 7.63 23.79 7.6 23.8 7.57 23.8 7.54 23.81 7.51 23.82 7.48 23.82 7.45 23.83 7.42 23.84 7.39 23.84 7.36 23.85 7.33 23.86 7.28 23.86 7.22 23.87 7.18 23.88 7.13 23.88 7.08 23.89 7.03 23.89 6.98 23.9 6.94 23.9 6.89 23.91 6.84 23.91 6.79 23.91 6.74 23.91 6.69 23.91 6.64 23.91 6.58 23.91 6.51 23.9 6.45 23.9 6.39 23.9 6.39"/><path class="cls-2" d="M296.74,393.22a2.75,2.75,0,0,0-1-.15,2.28,2.28,0,0,0-1.32.42,2.79,2.79,0,0,0-.44.36,2.58,2.58,0,0,0,0,3.54,2.35,2.35,0,0,0,.68.49,2.23,2.23,0,0,0,1.08.27h8.39l-6.5-4.38c-0.16-.1-0.3-0.2-0.44-0.27a3,3,0,0,0-.49-0.26h0Z" transform="translate(-292.37 -383.54)"/><path class="cls-3" d="M299.51,388.28l-0.19-.13a2.47,2.47,0,0,0-1.89-.34,2.42,2.42,0,0,0-1,.47,2.54,2.54,0,0,0-.34.33c-0.07.08-.13,0.17-0.19,0.25a2.45,2.45,0,0,0-.35.69,2.3,2.3,0,0,0-.06,1.18,2.9,2.9,0,0,0,.36.95,2.19,2.19,0,0,0,.66.67l7.33,5-3.3-7.57c0-.08-0.07-0.16-0.1-0.23a4.56,4.56,0,0,0-.37-0.74l-0.16-.2a2.76,2.76,0,0,0-.36-0.33h0Z" transform="translate(-292.37 -383.54)"/><path class="cls-4" d="M303.48,384.64l-0.22-.07a2.37,2.37,0,0,0-1.25,0,3.58,3.58,0,0,0-.43.15,2.36,2.36,0,0,0-1.31,1.36l0,0.1a2.47,2.47,0,0,0,.05,1.83l3.59,8.24,1.19-8.32a6,6,0,0,0,.09-1.06,2.54,2.54,0,0,0-.14-0.69c0-.08-0.06-0.16-0.09-0.25a2.41,2.41,0,0,0-1.43-1.29h0Z" transform="translate(-292.37 -383.54)"/><path class="cls-5" d="M313.52,393.48c-0.13.07-.27,0.17-0.44,0.27l-6.5,4.38H315a2.4,2.4,0,0,0,1.41-.47,4.15,4.15,0,0,0,.35-0.29l0.07-.07a2.33,2.33,0,0,0,.56-1,2,2,0,0,0,.07-0.36c0-.1,0-0.21,0-0.32a2.39,2.39,0,0,0-.47-1.48,2.21,2.21,0,0,0-.24-0.29,2.85,2.85,0,0,0-.45-0.36,2.11,2.11,0,0,0-.56-0.29,2.38,2.38,0,0,0-.75-0.12,2.65,2.65,0,0,0-1,.15,3.05,3.05,0,0,0-.5.26h0Z" transform="translate(-292.37 -383.54)"/><path class="cls-6" d="M310.52,386.19l0-.1a2.4,2.4,0,0,0-1.31-1.36,3.59,3.59,0,0,0-.43-0.15,2.37,2.37,0,0,0-1.25,0l-0.22.07a2.45,2.45,0,0,0-1.43,1.29c0,0.09-.07.17-0.1,0.25a2.5,2.5,0,0,0-.12,1.09v0.05h0.68a0.59,0.59,0,0,1,.37.1c0.05,0.05-.05.13-0.27,0.22l-0.17.11-0.21.17a0.62,0.62,0,0,0-.17.35,1.12,1.12,0,0,0,0,.33,0.82,0.82,0,0,0,0,.15l1.07,7.5,3.6-8.24a2.46,2.46,0,0,0,0-1.83h0Z" transform="translate(-292.37 -383.54)"/><path class="cls-7" d="M315.34,390.16a2.5,2.5,0,0,0-.45-1.3c-0.06-.08-0.12-0.17-0.19-0.25a2.54,2.54,0,0,0-.34-0.33,2.39,2.39,0,0,0-1-.47,2.47,2.47,0,0,0-1.89.34l-0.19.13a3.61,3.61,0,0,0-.35.33,1.29,1.29,0,0,0-.16.2,6.22,6.22,0,0,0-.48,1l-3.3,7.57,7.33-5a2.19,2.19,0,0,0,.66-0.67,0.16,0.16,0,0,0,0-.07,2.56,2.56,0,0,0,.22-0.51c0-.11.07-0.24,0.09-0.37a2.19,2.19,0,0,0,.05-0.57h0Z" transform="translate(-292.37 -383.54)"/><path class="cls-8" d="M304.87,401.72v1.93h0.95a0.81,0.81,0,0,0,.66-0.31,1.12,1.12,0,0,0,.25-0.74,0.85,0.85,0,0,0-.3-0.61,0.87,0.87,0,0,0-.64-0.26h-0.91Zm0,3.36v2.1H306a1.75,1.75,0,0,0,.91-0.23,0.79,0.79,0,0,0,.41-0.73,1.15,1.15,0,0,0-1.32-1.14h-1.09ZM316,400.18v1.93a3.15,3.15,0,0,0-1.43-.45l-0.6.06a3,3,0,0,0-1.8.92,2.62,2.62,0,0,0-.71,1.84,2.53,2.53,0,0,0,.66,1.75,3,3,0,0,0,1.68,1,3.09,3.09,0,0,0,.69.06,3.22,3.22,0,0,0,1.51-.46v2.11a4.66,4.66,0,0,1-1.64.3,4.35,4.35,0,0,1-.57,0,5.52,5.52,0,0,1-2.36-.76,4.64,4.64,0,0,1-1.69-1.72,4.71,4.71,0,0,1-.63-2.41,4.42,4.42,0,0,1,.69-2.25,4.6,4.6,0,0,1,1.71-1.6,5.27,5.27,0,0,1,2.34-.66,5.61,5.61,0,0,1,2.14.38h0Zm-19.11,8.73H295v-9.1l5.19,4.68v-4.31h1.93v9l-5.24-4.89v4.6h0Zm6.11,0v-8.73h3.76a2.1,2.1,0,0,1,1.3.62,2.05,2.05,0,0,1,.58,1.32,2.18,2.18,0,0,1-1,2,2.3,2.3,0,0,1,1.5,2.14,2.67,2.67,0,0,1-.67,1.82,2.42,2.42,0,0,1-1.7.83H303Z" transform="translate(-292.37 -383.54)"/></svg>