<svg id="Layer_3" data-name="Layer 3" xmlns="http://www.w3.org/2000/svg" xmlns:xlink="http://www.w3.org/1999/xlink" viewBox="0 0 219.02 47.99"><defs><style>.cls-1{fill:none;clip-rule:evenodd;}.cls-10,.cls-2{fill:#fff;}.cls-12,.cls-2,.cls-3,.cls-4,.cls-5,.cls-6,.cls-7{fill-rule:evenodd;}.cls-3{fill:#d4204b;}.cls-4{fill:#ed4f9b;}.cls-5{fill:#01a4c6;}.cls-6{fill:#fdc363;}.cls-7{fill:#f05b65;}.cls-8{clip-path:url(#clip-path);}.cls-9{fill:#78244f;}.cls-11{fill:#41b87a;}.cls-12{fill:#513593;}</style><clipPath id="clip-path" transform="translate(-225.02 -368.99)"><path class="cls-1" d="M383.92,394a7.36,7.36,0,0,0,5.47-1.17c2.25-1.81,2.9-2.4,3.74-2S392.9,393,392,393.9s-13,14.3-25.56,16.64c-18.62,3.48-22.17-26.55-.64-25.74,0,0,3.51-.24,8.54,4A23.29,23.29,0,0,0,383.92,394Z"/></clipPath></defs><title>patos</title><path class="cls-2" d="M352.74,389a1.12,1.12,0,0,1-.06-1,33.63,33.63,0,0,1,4.27-7.63,7.59,7.59,0,0,1-.78-2.18h-2.05c-1.35,0-4.38-.29-4.38-2.18s3-2.18,4.38-2.18h2.47a7.68,7.68,0,0,1,14.79,2.88,7.59,7.59,0,0,1-.34,2.27l0,0.08a39.13,39.13,0,0,1-2.34,5.15,21.78,21.78,0,0,1,6.17,3.62,1.12,1.12,0,0,1,.79-0.14,18.32,18.32,0,0,0,4.74.35,6,6,0,0,0,4.06-2.26c0.92-1.38,2.09-3.77,4-3.53,2.32,0.27,1.44,3.63.72,4.94-0.38.7-.73,1.45-1.1,2.17q-1,1.84-2,3.63a5.24,5.24,0,0,0,2.62-1c1.29-1,3.12-3,4.91-2.17,2.13,1,.29,3.89-0.79,4.93-1.82,1.75-3.45,3.49-5.37,5.2a62.21,62.21,0,0,1-11.77,8.42,32.33,32.33,0,0,1-8.45,3.22v2.24a4,4,0,0,1,1.92,1.51,1.12,1.12,0,0,1-1,1.7H356.8a1.12,1.12,0,0,1-.88-1.82c1.42-1.8,4.87-2.25,7.42-2.15v-1.07C351,411.81,346.46,397.11,352.74,389Z" transform="translate(-225.02 -368.99)"/><path class="cls-3" d="M380.5,389.1a7.36,7.36,0,0,0,4.87-2.75c1.61-2.4,2-3.15,3-3s0.45,2.22-.13,3.29c-0.23.42-1.52,3.17-3.67,6.72l-0.47-.07c-2.81-.55-6.3-2.65-8.64-4.5A18.89,18.89,0,0,0,380.5,389.1Z" transform="translate(-225.02 -368.99)"/><path class="cls-4" d="M354.12,374.91h3.27a6.57,6.57,0,0,0-.24,1.76c0,0.12,0,.23,0,0.35h-3c-1.79,0-3.26-.47-3.26-1.05h0C350.86,375.38,352.33,374.91,354.12,374.91Z" transform="translate(-225.02 -368.99)"/><path class="cls-5" d="M370,378.63a45.89,45.89,0,0,1-2.53,5.57,6,6,0,0,0-1.62-.15c-4.7-.17-9.15,1.16-12.09,4.34a30.05,30.05,0,0,1,4.63-8A6.55,6.55,0,0,0,370,378.63Z" transform="translate(-225.02 -368.99)"/><path class="cls-6" d="M363.7,383.21a6.55,6.55,0,1,0-6.55-6.55A6.56,6.56,0,0,0,363.7,383.21Z" transform="translate(-225.02 -368.99)"/><path class="cls-7" d="M366.1,410.6v4a3.54,3.54,0,0,1,2.08,1.29H356.8c1.15-1.46,4.77-2,7.66-1.63V410.8C365,410.76,365.53,410.7,366.1,410.6Z" transform="translate(-225.02 -368.99)"/><path class="cls-6" d="M383.92,394a7.36,7.36,0,0,0,5.47-1.17c2.25-1.81,2.9-2.4,3.74-2S392.9,393,392,393.9s-13,14.3-25.56,16.64c-18.62,3.48-22.17-26.55-.64-25.74,0,0,3.51-.24,8.54,4A23.29,23.29,0,0,0,383.92,394Z" transform="translate(-225.02 -368.99)"/><g class="cls-8"><rect class="cls-9" x="115.13" y="21.63" width="103.89" height="16.36"/><path class="cls-2" d="M355.1,399.68l-1-.72-0.59,1,2.37,1.8,2.12-3.07-4.88-3.34-5.39,7.35-0.31.42-0.42-.3-5.41-3.85-0.39-.28,0.24-.42,2.74-4.64,0.3-.5,0.47,0.35,3.13,2.32,0.43,0.31-0.32.43-1,1.41-0.29.39-0.41-.25-1.45-.9,0.56-.9,1,0.65,0.45-.6-2.24-1.66-2.19,3.72,4.59,3.27,5.38-7.35,0.3-.41,0.42,0.29,5.74,3.93,0.44,0.3-0.3.44-2.73,4-0.31.45-0.44-.33-3.19-2.42-0.38-.29,0.25-.41,1.14-1.83,0.29-.47,0.45,0.31,1.5,1-0.59.87h0Zm-5.69-5,1.07-1.41-1.41-1.07L348,393.65l1.41,1.07h0Zm3,11.22,1.8-2.37-2.37-1.79-1.79,2.36,2.37,1.8h0Zm-0.21-1.57-0.59-.44,0.44-.58,0.59,0.44Z" transform="translate(-225.02 -368.99)"/><path class="cls-2" d="M369.21,404.34c-0.21,0-3.35-2.23-6.56-4.5-2.19,3.08-4.26,6-4.27,6.08l-1-.16c0-.21,2.19-3.3,4.44-6.48-3.19-2.26-6.21-4.42-6.23-4.44l0.57-.8,6.22,4.44c2.28-3.22,4.48-6.29,4.49-6.31l0.8,0.57-4.49,6.3c3.11,2.21,6.09,4.31,6.16,4.33Z" transform="translate(-225.02 -368.99)"/><path class="cls-2" d="M379.78,399.68l-1-.72-0.6,1,2.37,1.8,2.12-3.07-4.88-3.34-5.38,7.35-0.31.42-0.42-.3-5.41-3.85-0.39-.28,0.24-.42,2.74-4.64,0.3-.5,0.47,0.35,3.13,2.32,0.42,0.31-0.32.43-1,1.41-0.29.39-0.41-.25-1.45-.9,0.56-.9,1,0.65,0.45-.6-2.24-1.66-2.19,3.72,4.59,3.27,5.38-7.35,0.3-.41,0.42,0.29,5.74,3.93,0.44,0.3-0.3.44-2.73,4-0.31.45-0.44-.33-3.19-2.42-0.38-.29,0.25-.41,1.14-1.83,0.29-.47,0.45,0.31,1.5,1-0.6.87h0Zm-5.69-5,1.07-1.41-1.41-1.07-1.07,1.41,1.41,1.07h0Zm3,11.22,1.79-2.37-2.37-1.79-1.79,2.36,2.37,1.8h0Zm-0.22-1.57-0.59-.44,0.44-.58,0.59,0.44Z" transform="translate(-225.02 -368.99)"/><path class="cls-2" d="M426.48,405.94l-2.36-1.8,1.79-2.36,2.37,1.79-1.79,2.37h0Zm-0.21-1.57,0.44-.58-0.59-.44-0.44.59Z" transform="translate(-225.02 -368.99)"/><path class="cls-2" d="M404.46,399.68l-1-.72-0.6,1,2.37,1.8,2.12-3.07-4.88-3.34L397,402.66l-0.31.42-0.42-.3-5.41-3.85-0.39-.28,0.24-.42,2.74-4.64,0.3-.5,0.47,0.35,3.13,2.32,0.42,0.31-0.32.43-1,1.41-0.29.39-0.41-.25-1.45-.9,0.56-.9,1,0.65,0.44-.6-2.24-1.66-2.19,3.72,4.6,3.27,5.38-7.35,0.3-.41,0.42,0.29,5.74,3.93,0.44,0.3-0.3.44-2.73,4-0.31.45-0.44-.33-3.19-2.42-0.38-.29,0.25-.41,1.14-1.83,0.29-.47,0.45,0.31,1.5,1-0.6.87h0Zm-5.69-5,1.07-1.41-1.41-1.07-1.07,1.41,1.41,1.07h0Zm3,11.22,1.79-2.37-2.37-1.79-1.8,2.36,2.37,1.8h0Zm-0.21-1.57-0.59-.44,0.44-.58,0.59,0.44Z" transform="translate(-225.02 -368.99)"/><rect class="cls-10" x="422.39" y="392.59" width="1.77" height="1.77" transform="translate(-371.14 123.34) rotate(-52.76)"/><polygon class="cls-2" points="204.12 30.69 203.07 29.98 202.47 30.93 204.84 32.72 206.96 29.66 202.08 26.32 196.7 33.67 196.39 34.09 195.97 33.79 190.56 29.94 190.16 29.66 190.41 29.25 193.14 24.6 193.44 24.1 193.91 24.45 197.04 26.76 197.47 27.07 197.15 27.5 196.1 28.91 195.81 29.3 195.4 29.05 193.95 28.15 194.5 27.25 195.54 27.9 195.99 27.3 193.75 25.64 191.56 29.36 196.15 32.63 201.53 25.28 201.84 24.87 202.26 25.16 208 29.08 208.43 29.38 208.13 29.82 205.4 33.77 205.08 34.23 204.65 33.9 201.46 31.48 201.07 31.19 201.32 30.78 202.46 28.95 202.75 28.48 203.21 28.79 204.71 29.82 204.12 30.69"/><path class="cls-2" d="M393.89,404.34c-0.21,0-3.35-2.23-6.56-4.5-2.19,3.08-4.26,6-4.27,6.08l-1-.16c0-.21,2.19-3.3,4.44-6.48-3.19-2.26-6.21-4.42-6.23-4.44l0.57-.8,6.22,4.44c2.28-3.22,4.48-6.29,4.49-6.31l0.8,0.57-4.49,6.3c3.11,2.21,6.09,4.31,6.16,4.33Z" transform="translate(-225.02 -368.99)"/><path class="cls-2" d="M418.56,404.34c-0.21,0-3.35-2.23-6.56-4.5-2.19,3.08-4.26,6-4.27,6.08l-1-.16c0-.21,2.19-3.3,4.44-6.48C408,397,405,394.86,405,394.85l0.57-.8,6.22,4.44c2.28-3.22,4.48-6.29,4.49-6.31l0.8,0.57-4.49,6.3c3.11,2.21,6.09,4.31,6.16,4.33Z" transform="translate(-225.02 -368.99)"/><path class="cls-2" d="M443.24,404.34c-0.21,0-3.35-2.23-6.56-4.5-2.19,3.08-4.26,6-4.27,6.08l-1-.16c0-.21,2.19-3.3,4.44-6.48-3.19-2.26-6.21-4.42-6.23-4.44l0.57-.8,6.22,4.44c2.28-3.22,4.48-6.29,4.49-6.31l0.8,0.57-4.49,6.3c3.11,2.21,6.09,4.31,6.16,4.33Z" transform="translate(-225.02 -368.99)"/><rect class="cls-10" x="361.97" y="402.73" width="1.77" height="1.77" transform="matrix(0.6, -0.8, 0.8, 0.6, -403.05, 79.43)"/><rect class="cls-10" x="364.83" y="402.83" width="1.77" height="1.77" transform="translate(-401.99 81.84) rotate(-52.79)"/><rect class="cls-10" x="360.33" y="393.42" width="1.77" height="1.77" transform="matrix(0.6, -0.8, 0.8, 0.6, -396.29, 74.45)"/><rect class="cls-10" x="385.67" y="394.43" width="1.77" height="1.77" transform="translate(-387.11 94.81) rotate(-52.76)"/><rect class="cls-10" x="388.56" y="402.37" width="1.77" height="1.77" transform="translate(-392.26 100.42) rotate(-52.77)"/><rect class="cls-10" x="409.99" y="393.86" width="1.77" height="1.77" transform="translate(-377 114.25) rotate(-52.79)"/><rect class="cls-10" x="412.46" y="402.79" width="2.35" height="2.35" transform="translate(-383.28 119.92) rotate(-52.77)"/><rect class="cls-10" x="434.84" y="393.9" width="2.35" height="2.35" transform="translate(-367.34 134.34) rotate(-52.78)"/><rect class="cls-10" x="436.18" y="402.81" width="2.35" height="2.35" transform="translate(-373.93 138.8) rotate(-52.77)"/><rect class="cls-11" x="125.27" y="15.06" width="46.16" height="5.2"/><rect class="cls-11" x="125.27" y="39.34" width="46.16" height="3.79"/></g><path class="cls-12" d="M239.28,388.15a10.05,10.05,0,0,0-6.35-1.94h-7.37a0.54,0.54,0,0,0-.54.54v2.16l4.16,6.78H225v13.18a0.54,0.54,0,0,0,.54.54h3.16a0.52,0.52,0,0,0,.51-0.54v-8.94H233a10,10,0,0,0,6.29-1.94,6.3,6.3,0,0,0,2.48-4.92,6.22,6.22,0,0,0-2.48-4.92h0Zm-8.37,2.27h2c3,0,4.62,1.32,4.62,2.65,0,1.13-1.19,2.27-3.48,2.57Z" transform="translate(-225.02 -368.99)"/><path class="cls-12" d="M264.35,400.44a0.52,0.52,0,0,0-.54-0.51H262l-3.29-13.21,0-.13a0.53,0.53,0,0,0-.49-0.32h-3.54a0.53,0.53,0,0,0-.49.32l0,0.16-5.48,21.9s0,0.05,0,.05v0.11a0.54,0.54,0,0,0,.51.57h3.27a0.52,0.52,0,0,0,.49-0.38,0.1,0.1,0,0,1,0-.06l1.19-4.83h4.62l1.19,4.81,0,0.08a0.55,0.55,0,0,0,.49.38h3.27a0.53,0.53,0,0,0,.51-0.57v-0.05l0-.14-1.13-4.51h0.73a0.52,0.52,0,0,0,.54-0.51v-3.16h0Zm-9.15-.51,1.27-5,1.24,5H255.2Z" transform="translate(-225.02 -368.99)"/><path class="cls-12" d="M287.89,389.88a0.61,0.61,0,0,1-.65.54h-5.16v18.34a0.61,0.61,0,0,1-.51.65h-3.19a0.61,0.61,0,0,1-.51-0.65V390.42h-5.27a0.54,0.54,0,0,1-.54-0.54v-3.16a0.52,0.52,0,0,1,.54-0.51h14.64a0.59,0.59,0,0,1,.65.51v3.16Z" transform="translate(-225.02 -368.99)"/><path class="cls-12" d="M306,409.43a11.61,11.61,0,1,1,11.61-11.61A11.63,11.63,0,0,1,306,409.43h0Zm0-19a7.39,7.39,0,1,0,7.37,7.4A7.41,7.41,0,0,0,306,390.42Z" transform="translate(-225.02 -368.99)"/><path class="cls-12" d="M343.32,402.6a7,7,0,0,1-1.05,3.46c-0.95,1.57-2.89,3.4-6.86,3.4a7.52,7.52,0,0,1-6.91-3.67,8.24,8.24,0,0,1-.95-2.94c0-.05,0-0.11,0-0.16a0.55,0.55,0,0,1,.48-0.54h3.32a0.49,0.49,0,0,1,.43.38v0s0,0.05,0,.08a3.14,3.14,0,0,0,.46,1.19,3.38,3.38,0,0,0,3.16,1.43c1.65,0,2.7-.46,3.27-1.38a3.29,3.29,0,0,0,.43-1.3,2.17,2.17,0,0,0-1.59-2.22,6.54,6.54,0,0,0-2.11-.46,11.12,11.12,0,0,1-3.7-.73,6.29,6.29,0,0,1-4.21-6.1,7.13,7.13,0,0,1,2-4.75,7.93,7.93,0,0,1,5.89-2.16,7.77,7.77,0,0,1,5.64,2.14,8.4,8.4,0,0,1,2.24,5v0.05a0.53,0.53,0,0,1-.51.57h-3.27a0.58,0.58,0,0,1-.46-0.43v-0.08a6.08,6.08,0,0,0-.49-1.46c-0.38-.68-1.11-1.57-3.16-1.57a4,4,0,0,0-2.92.92,3,3,0,0,0-.78,1.78,2.14,2.14,0,0,0,1.59,2.19,7,7,0,0,0,2.11.43,10.71,10.71,0,0,1,3.7.76A6.38,6.38,0,0,1,343.32,402.6Z" transform="translate(-225.02 -368.99)"/></svg>