<svg id="Layer_1" data-name="Layer 1" xmlns="http://www.w3.org/2000/svg" viewBox="0 0 37.01 23.62"><defs><style>.cls-1{fill:#333;}</style></defs><title>refinery29</title><path class="cls-1" d="M215.79,389.74a2,2,0,0,0-1.11.31c-0.36-1.24-1.44-1.94-3.08-1.94H209V389h2.66a2,2,0,1,1,0,4h0l0.15-.22a2.9,2.9,0,0,0,.63-1.44,1.6,1.6,0,0,0-1.77-1.66,1.73,1.73,0,0,0-1.78,1.7h1a0.76,0.76,0,0,1,.82-0.79,0.72,0.72,0,0,1,.81.79,2.09,2.09,0,0,1-.48,1.08l-0.39.56H209V394h1l-1.7,2.48h4.06v-0.91H210L211,394h0.84l2.84,3.71H216L215,396.45l1.78-2.6a4,4,0,0,0,1-2.15A1.94,1.94,0,0,0,215.79,389.74Zm-1.38,5.94-1.47-1.9a2.64,2.64,0,0,0,1.29-.85,2,2,0,0,0,1.57.72h0.05Zm1.38-2.92a1,1,0,0,1-1-1.06,1,1,0,0,1,0-.14v0a1,1,0,0,1,1-.89A1.06,1.06,0,0,1,215.79,392.76Z" transform="translate(-194.24 -385.09)"/><path class="cls-1" d="M212.75,385.09a7.6,7.6,0,1,0,7.6,7.6A7.61,7.61,0,0,0,212.75,385.09Zm0,14.31a6.7,6.7,0,1,1,6.7-6.7A6.71,6.71,0,0,1,212.75,399.4Z" transform="translate(-194.24 -385.09)"/><path class="cls-1" d="M196.77,406.47a1.21,1.21,0,0,0,0-1.77,1.29,1.29,0,0,0-.94-0.32h-1.58v4.33h0.84v-1.92h0.3l1.54,1.92h1l-1.62-2A1.13,1.13,0,0,0,196.77,406.47Zm-0.57-.55a0.51,0.51,0,0,1-.42.13h-0.69v-0.93h0.69a0.51,0.51,0,0,1,.42.14,0.52,0.52,0,0,1,.12.34A0.53,0.53,0,0,1,196.2,405.92Z" transform="translate(-194.24 -385.09)"/><polygon class="cls-1" points="5.12 21.66 6.45 21.66 6.45 20.92 5.12 20.92 5.12 20.03 6.88 20.03 6.88 19.28 4.28 19.28 4.28 23.62 6.95 23.62 6.95 22.87 5.12 22.87 5.12 21.66"/><polygon class="cls-1" points="8.04 23.62 8.88 23.62 8.88 21.66 10.21 21.66 10.21 20.92 8.88 20.92 8.88 20.03 10.64 20.03 10.64 19.28 8.04 19.28 8.04 23.62"/><rect class="cls-1" x="11.52" y="19.28" width="0.84" height="4.33"/><polygon class="cls-1" points="16.55 22.11 14.13 19.28 13.55 19.28 13.55 23.62 14.38 23.62 14.38 20.79 16.8 23.62 17.39 23.62 17.39 19.28 16.55 19.28 16.55 22.11"/><polygon class="cls-1" points="19.5 21.66 20.83 21.66 20.83 20.92 19.5 20.92 19.5 20.03 21.26 20.03 21.26 19.28 18.66 19.28 18.66 23.62 21.32 23.62 21.32 22.87 19.5 22.87 19.5 21.66"/><path class="cls-1" d="M219.18,406.47a1.21,1.21,0,0,0,0-1.77,1.29,1.29,0,0,0-.94-0.32h-1.58v4.33h0.84v-1.92h0.3l1.54,1.92h1l-1.62-2A1.18,1.18,0,0,0,219.18,406.47Zm-0.58-.55a0.51,0.51,0,0,1-.42.13h-0.69v-0.93h0.69a0.51,0.51,0,0,1,.42.14,0.52,0.52,0,0,1,.12.34A0.46,0.46,0,0,1,218.6,405.92Z" transform="translate(-194.24 -385.09)"/><polygon class="cls-1" points="27.87 20.81 26.91 19.28 25.96 19.28 27.45 21.66 27.45 23.62 28.28 23.62 28.28 21.66 29.76 19.28 28.81 19.28 27.87 20.81"/><path class="cls-1" d="M226.87,406.86a1.9,1.9,0,0,0,.47-1.27h0a1.39,1.39,0,0,0-1.42-1.37h0a1.41,1.41,0,0,0-1.42,1.35h0.84a0.59,0.59,0,1,1,1.19,0,1.25,1.25,0,0,1-.34.87l-1.86,2.27h3.2V408H226Z" transform="translate(-194.24 -385.09)"/><path class="cls-1" d="M229.67,404.22a1.55,1.55,0,0,0-1.54,1.55,1.5,1.5,0,0,0,1.52,1.52h0.06l-0.82,1.41h0.92l1-1.75a2.45,2.45,0,0,0,.43-1.22A1.54,1.54,0,0,0,229.67,404.22Zm0,2.32a0.78,0.78,0,1,1,.78-0.78A0.78,0.78,0,0,1,229.69,406.55Z" transform="translate(-194.24 -385.09)"/></svg>