<?xml version="1.0" encoding="utf-8"?>
<!-- Generator: Adobe Illustrator 19.2.1, SVG Export Plug-In . SVG Version: 6.00 Build 0)  -->
<svg version="1.1" id="Layer_1" xmlns="http://www.w3.org/2000/svg" xmlns:xlink="http://www.w3.org/1999/xlink" x="0px" y="0px"
	 viewBox="0 0 203.3 125" style="enable-background:new 0 0 203.3 125;" xml:space="preserve">
<style type="text/css">
	.st0{fill:#6434B2;}
	.st1{fill:#636363;}
	.st2{fill:#1712F9;}
	.st3{fill:#FF5017;}
	.st4{fill:#515151;}
	.st5{fill:#3333C1;}
	.st6{fill:#FFFFFF;}
	.st7{font-family:'SofiaProSemiBold';}
	.st8{font-size:12px;}
	.st9{fill:#004DAA;}
	.st10{enable-background:new    ;}
</style>
<rect x="222.6" y="0" class="st0" width="203.3" height="125"/>
<rect x="155.5" y="247.3" style="fill:none;" width="28" height="3.7"/>
<text transform="matrix(1 0 0 1 155.5229 250.186)" class="st7" style="font-size:4px;">Third</text>
<rect x="155.5" y="252.4" style="fill:none;" width="17.8" height="3.7"/>
<text transform="matrix(1 0 0 1 155.5219 255.2996)" class="st7" style="font-size:4px;">#636363</text>
<rect x="155.5" y="231.5" style="fill:none;" width="28" height="3.7"/>
<text transform="matrix(1 0 0 1 155.5229 234.4031)" class="st7" style="font-size:4px;">Secondary</text>
<rect x="155.5" y="236.6" style="fill:none;" width="17.8" height="3.7"/>
<text transform="matrix(1 0 0 1 155.5219 239.5167)" class="st7" style="font-size:4px;">#FF5017</text>
<rect x="101.6" y="245.6" class="st1" width="51" height="12.3"/>
<rect x="101.6" y="229.5" class="st2" width="51" height="12.3"/>
<rect x="155.5" y="215.5" style="fill:none;" width="17.8" height="3.7"/>
<text transform="matrix(1 0 0 1 155.5219 218.3557)" class="st7" style="font-size:4px;">Primary</text>
<rect x="155.5" y="220.6" style="fill:none;" width="17.8" height="3.7"/>
<text transform="matrix(1 0 0 1 155.5219 223.4693)" class="st7" style="font-size:4px;">#FF5017</text>
<rect x="101.6" y="213.5" class="st3" width="51" height="12.3"/>
<rect x="29.2" y="254" style="fill:none;" width="72.5" height="5.1"/>
<text transform="matrix(1 0 0 1 29.171 256.9187)" class="st7" style="font-size:4px;">HEADER # 5</text>
<rect x="29.2" y="245.4" style="fill:none;" width="72.5" height="5.1"/>
<text transform="matrix(1 0 0 1 29.171 249.727)" class="st7" style="font-size:6px;">Header #4</text>
<rect x="29.2" y="235.7" style="fill:none;" width="72.5" height="5.1"/>
<text transform="matrix(1 0 0 1 29.171 240.7285)" class="st7" style="font-size:7px;">Header #3</text>
<rect x="29.2" y="225.8" style="fill:none;" width="63.6" height="7.5"/>
<text transform="matrix(1 0 0 1 29.171 231.5517)" class="st7" style="font-size:8px;">Header #2</text>
<rect x="29.2" y="213.5" style="fill:none;" width="63.6" height="9.1"/>
<text transform="matrix(1 0 0 1 29.1706 220.6944)" class="st7" style="font-size:10px;">Header #1</text>
<g>
	<path class="st3" d="M40.9,168.8l-10.4,10.8v23.3l31.2-11.8L40.9,168.8z M39.2,172.9l-2.5,8.2l-4-1.5L39.2,172.9z M36.3,182.6
		l-4.1,13.7V181L36.3,182.6z M32.6,200.4L32.6,200.4l5.2-17.2l20.2,7.6L32.6,200.4z M38.2,181.6l3.1-10.1l0,0l16.2,17.4L38.2,181.6z
		"/>
	<text transform="matrix(1 0 0 1 72.4815 193.1118)" class="st3 st7 st8">Deep &amp; Company</text>
</g>
<rect x="-188.3" y="239.8" style="fill:none;" width="151.9" height="16.3"/>
<text transform="matrix(1 0 0 1 -188.3172 243.3602)"><tspan x="0" y="0" class="st4 st7" style="font-size:5px;">The new age of marketing is here. Generation Z wants real-life, </tspan><tspan x="0" y="6" class="st4 st7" style="font-size:5px;">delighting experiences. “Engagement” will soon be an out-dated </tspan><tspan x="0" y="12" class="st4 st7" style="font-size:5px;">metric.</tspan></text>
<rect x="-188.3" y="225.8" style="fill:none;" width="151.9" height="10.1"/>
<text transform="matrix(1 0 0 1 -188.3172 230.831)" class="st7" style="font-size:7px;">Generation-Z marketing for the future.</text>
<rect x="-188.3" y="211.8" style="fill:none;" width="142.2" height="10.1"/>
<text transform="matrix(1 0 0 1 -188.3166 218.3018)" class="st7" style="font-size:9px;">Marketing for tomorrow.</text>
<rect x="-512.1" y="94.8" style="fill:none;" width="69.8" height="6.9"/>
<text transform="matrix(1 0 0 1 -501.0808 99.8162)" class="st7" style="font-size:7px;">Sofia semibold</text>
<rect x="453" class="st5" width="203.3" height="125"/>
<g>
	<path class="st6" d="M494,40.4l-10.4,10.8v23.3l31.2-11.8L494,40.4z M492.3,44.5l-2.5,8.2l-4-1.5L492.3,44.5z M489.3,54.2
		l-4.1,13.7V52.6L489.3,54.2z M485.6,72L485.6,72l5.2-17.2l20.2,7.6L485.6,72z M491.3,53.2l3.1-10.1l0,0l16.2,17.4L491.3,53.2z"/>
	<text transform="matrix(1 0 0 1 525.5248 64.6855)" class="st6 st7 st8">Deep &amp; Company</text>
</g>
<g>
	<path class="st6" d="M263.5,40.4l-10.4,10.8v23.3l31.2-11.8L263.5,40.4z M261.8,44.5l-2.5,8.2l-4-1.5L261.8,44.5z M258.9,54.2
		l-4.1,13.7V52.6L258.9,54.2z M255.2,72L255.2,72l5.2-17.2l20.2,7.6L255.2,72z M260.8,53.2l3.1-10.1l0,0l16.2,17.4L260.8,53.2z"/>
	<text transform="matrix(1 0 0 1 295.0607 64.6855)" class="st6 st7 st8">Deep &amp; Company</text>
</g>
<rect x="-217.5" y="348" class="st3" width="203.3" height="125"/>
<g>
	<path class="st6" d="M-55.5,430.3l10.4-10.8v-23.3L-76.3,408L-55.5,430.3z M-53.8,426.2l2.5-8.2l4,1.5L-53.8,426.2z M-50.8,416.5
		l4.1-13.7v15.3L-50.8,416.5z M-47.1,398.7L-47.1,398.7l-5.2,17.2l-20.2-7.6L-47.1,398.7z M-52.8,417.5l-3.1,10.1l0,0l-16.2-17.4
		L-52.8,417.5z"/>
	<text transform="matrix(1 0 0 1 -181.0605 413.2631)" class="st6 st7 st8">Deep &amp; Company</text>
</g>
<rect x="0" class="st3" width="203.3" height="125"/>
<g>
	<path class="st6" d="M40.9,40.4L30.5,51.1v23.3l31.2-11.8L40.9,40.4z M39.2,44.5l-2.5,8.2l-4-1.5L39.2,44.5z M36.3,54.2l-4.1,13.7
		V52.6L36.3,54.2z M32.6,72L32.6,72l5.2-17.2L58,62.4L32.6,72z M38.2,53.2l3.1-10.1l0,0l16.2,17.4L38.2,53.2z"/>
	<text transform="matrix(1 0 0 1 72.481 64.6854)" class="st6 st7 st8">Deep &amp; Company</text>
</g>
<path class="st3" d="M-176.5,168.8l-10.4,10.8v23.3l31.2-11.8L-176.5,168.8z M-178.3,172.9l-2.5,8.2l-4-1.5L-178.3,172.9z
	 M-181.2,182.6l-4.1,13.7V181L-181.2,182.6z M-184.9,200.4L-184.9,200.4l5.2-17.2l20.2,7.6L-184.9,200.4z M-179.2,181.6l3.1-10.1
	l0,0l16.2,17.4L-179.2,181.6z"/>
<text transform="matrix(1 0 0 1 -145.0067 193.1118)" class="st3 st7 st8">Deep &amp; Company</text>
<path class="st3" d="M250.6-317.2l-82.7,85.7v185.5l248.2-93.7L250.6-317.2z M236.8-284.6l-19.6,64.9l-31.6-11.9L236.8-284.6z
	 M213.5-207.4L180.7-98.5v-121.3L213.5-207.4z M184.1-65.8L184.1-65.8l41.4-137.1l160.9,60.7L184.1-65.8z M229.2-215.2l24.2-80.4
	l0,0l128.9,138.2L229.2-215.2z"/>
<path class="st3" d="M-176.5,40.4l-10.4,10.8v23.3l31.2-11.8L-176.5,40.4z M-178.3,44.5l-2.5,8.2l-4-1.5L-178.3,44.5z M-181.2,54.2
	l-4.1,13.7V52.6L-181.2,54.2z M-184.9,72L-184.9,72l5.2-17.2l20.2,7.6L-184.9,72z M-179.2,53.2l3.1-10.1l0,0l16.2,17.4L-179.2,53.2z
	"/>
<text transform="matrix(1 0 0 1 -145.0066 64.6855)" class="st3 st7 st8">Deep &amp; Company</text>
<path class="st9" d="M-326.3,35.9l-10.4,10.8V70l31.2-11.8L-326.3,35.9z M-328.1,40l-2.5,8.2l-4-1.5L-328.1,40z M-331,49.7
	l-4.1,13.7V48.2L-331,49.7z M-334.7,67.5L-334.7,67.5l5.2-17.2l20.2,7.6L-334.7,67.5z M-329,48.8l3.1-10.1l0,0l16.2,17.4L-329,48.8z
	"/>
<text transform="matrix(1 0 0 1 -369.2748 85.0257)" class="st9 st7 st8">Deep &amp; Company</text>
<text transform="matrix(1 0 0 1 -512.0625 115)" style="font-family:'HelveticaNeue-Bold'; font-size:5px;">Created by Felix Koutchinski</text>
<text transform="matrix(1 0 0 1 -512.0625 120)" style="font-family:'HelveticaNeue-Bold'; font-size:5px;">from the Noun Project</text>
</svg>
